<mxfile host="app.diagrams.net" modified="2022-04-29T12:59:17.710Z" agent="5.0 (Windows NT 10.0; Win64; x64) AppleWebKit/537.36 (KHTML, like Gecko) Chrome/100.0.4896.127 Safari/537.36 Edg/100.0.1185.50" etag="_HXzZrHdJ4omn6Z4fZ1N" version="17.4.6" type="github">
  <diagram id="eNNG38ckb3YvtIHXAXAh" name="Page-1">
    <mxGraphModel dx="1038" dy="579" grid="1" gridSize="10" guides="1" tooltips="1" connect="1" arrows="1" fold="1" page="1" pageScale="1" pageWidth="850" pageHeight="1100" math="0" shadow="0">
      <root>
        <mxCell id="0" />
        <mxCell id="1" parent="0" />
        <mxCell id="Ldv3YtDbr9WbOWT3wDN2-3" value="" style="edgeStyle=orthogonalEdgeStyle;rounded=0;orthogonalLoop=1;jettySize=auto;html=1;" edge="1" parent="1" source="Ldv3YtDbr9WbOWT3wDN2-1" target="Ldv3YtDbr9WbOWT3wDN2-2">
          <mxGeometry relative="1" as="geometry" />
        </mxCell>
        <mxCell id="Ldv3YtDbr9WbOWT3wDN2-1" value="start" style="rounded=1;whiteSpace=wrap;html=1;" vertex="1" parent="1">
          <mxGeometry x="80" y="40" width="90" height="20" as="geometry" />
        </mxCell>
        <mxCell id="Ldv3YtDbr9WbOWT3wDN2-5" value="" style="edgeStyle=orthogonalEdgeStyle;rounded=0;orthogonalLoop=1;jettySize=auto;html=1;" edge="1" parent="1" source="Ldv3YtDbr9WbOWT3wDN2-2" target="Ldv3YtDbr9WbOWT3wDN2-4">
          <mxGeometry relative="1" as="geometry" />
        </mxCell>
        <mxCell id="Ldv3YtDbr9WbOWT3wDN2-2" value="get the queue pop" style="rounded=0;whiteSpace=wrap;html=1;" vertex="1" parent="1">
          <mxGeometry x="65" y="100" width="120" height="60" as="geometry" />
        </mxCell>
        <mxCell id="Ldv3YtDbr9WbOWT3wDN2-7" value="" style="edgeStyle=orthogonalEdgeStyle;rounded=0;orthogonalLoop=1;jettySize=auto;html=1;" edge="1" parent="1" source="Ldv3YtDbr9WbOWT3wDN2-4" target="Ldv3YtDbr9WbOWT3wDN2-6">
          <mxGeometry relative="1" as="geometry" />
        </mxCell>
        <mxCell id="Ldv3YtDbr9WbOWT3wDN2-4" value="get the queue slot and over queue slot" style="rounded=0;whiteSpace=wrap;html=1;" vertex="1" parent="1">
          <mxGeometry x="65" y="190" width="120" height="60" as="geometry" />
        </mxCell>
        <mxCell id="Ldv3YtDbr9WbOWT3wDN2-9" value="" style="edgeStyle=orthogonalEdgeStyle;rounded=0;orthogonalLoop=1;jettySize=auto;html=1;" edge="1" parent="1" source="Ldv3YtDbr9WbOWT3wDN2-6" target="Ldv3YtDbr9WbOWT3wDN2-8">
          <mxGeometry relative="1" as="geometry" />
        </mxCell>
        <mxCell id="Ldv3YtDbr9WbOWT3wDN2-6" value="call&amp;nbsp;queuing for secondary queue&amp;nbsp;" style="rounded=1;whiteSpace=wrap;html=1;fillColor=#f8cecc;gradientColor=#ea6b66;strokeColor=#b85450;" vertex="1" parent="1">
          <mxGeometry x="65" y="280" width="120" height="60" as="geometry" />
        </mxCell>
        <mxCell id="Ldv3YtDbr9WbOWT3wDN2-8" value="end" style="ellipse;whiteSpace=wrap;html=1;" vertex="1" parent="1">
          <mxGeometry x="72.5" y="370" width="105" height="50" as="geometry" />
        </mxCell>
      </root>
    </mxGraphModel>
  </diagram>
</mxfile>
